<svg width="97" height="96" xmlns="http://www.w3.org/2000/svg" xmlns:xlink="http://www.w3.org/1999/xlink" overflow="hidden"><defs><clipPath id="clip0"><rect x="424" y="180" width="97" height="96"/></clipPath><clipPath id="clip1"><rect x="425" y="180" width="96" height="96"/></clipPath><clipPath id="clip2"><rect x="425" y="180" width="96" height="96"/></clipPath><clipPath id="clip3"><rect x="425" y="180" width="96" height="96"/></clipPath></defs><g clip-path="url(#clip0)" transform="translate(-424 -180)"><g clip-path="url(#clip1)"><g clip-path="url(#clip2)"><g clip-path="url(#clip3)"><path d="M506 256 440 256C437.8 256 436 254.2 436 252L436 204C436 201.8 437.8 200 440 200L458.8 200C459.6 200 460.4 200.2 461 200.7L472 208 506 208C508.2 208 510 209.8 510 212L510 252C510 254.2 508.2 256 506 256Z" fill="#0070C0" fill-rule="nonzero" fill-opacity="1"/></g></g></g></g></svg>